<?xml version="1.0" encoding="UTF-8" standalone="no"?>
<!DOCTYPE svg PUBLIC "-//W3C//DTD SVG 1.1//EN" "http://www.w3.org/Graphics/SVG/1.1/DTD/svg11.dtd">
<svg version="1.1" xmlns="http://www.w3.org/2000/svg" xmlns:xlink="http://www.w3.org/1999/xlink" preserveAspectRatio="xMidYMid meet" viewBox="0 0 640 640" width="100" height="100"><defs><path d="M495.45 323.58C495.45 415.48 420.54 490.09 328.27 490.09C236 490.09 161.09 415.48 161.09 323.58C161.09 231.67 236 157.06 328.27 157.06C420.54 157.06 495.45 231.67 495.45 323.58Z" id="f1ufiYXetk"></path><path d="M350.09 62.55C355.61 62.55 360.09 67.02 360.09 72.55C360.09 122.75 360.09 263.37 360.09 313.58C360.09 319.1 355.61 323.58 350.09 323.58C339.36 323.58 317.18 323.58 306.45 323.58C300.93 323.58 296.45 319.1 296.45 313.58C296.45 263.37 296.45 122.75 296.45 72.55C296.45 67.02 300.93 62.55 306.45 62.55C317.18 62.55 339.36 62.55 350.09 62.55Z" id="a24mMQ4lse"></path></defs><g><g><g><use xlink:href="#f1ufiYXetk" opacity="1" fill="#a38401" fill-opacity="0"></use><g><use xlink:href="#f1ufiYXetk" opacity="1" fill-opacity="0" stroke="#ffffff" stroke-width="50" stroke-opacity="1"></use></g></g><g><use xlink:href="#a24mMQ4lse" opacity="1" fill="#ffffff" fill-opacity="0.99"></use><g><use xlink:href="#a24mMQ4lse" opacity="1" fill-opacity="0" stroke="#979b97" stroke-width="0" stroke-opacity="1"></use></g></g></g></g></svg>