<?xml version="1.0" encoding="UTF-8" standalone="no"?>
<!DOCTYPE svg PUBLIC "-//W3C//DTD SVG 1.1//EN" "http://www.w3.org/Graphics/SVG/1.1/DTD/svg11.dtd">
<svg version="1.1" xmlns="http://www.w3.org/2000/svg" xmlns:xlink="http://www.w3.org/1999/xlink" preserveAspectRatio="xMidYMid meet" viewBox="0 0 640 640" width="100" height="100"><defs><path d="M252.18 140.45C257.7 140.45 262.18 144.93 262.18 150.45C262.18 211 262.18 382.64 262.18 443.18C262.18 448.7 257.7 453.18 252.18 453.18C236.36 453.18 198.91 453.18 183.09 453.18C177.57 453.18 173.09 448.7 173.09 443.18C173.09 382.64 173.09 211 173.09 150.45C173.09 144.93 177.57 140.45 183.09 140.45C198.91 140.45 236.36 140.45 252.18 140.45Z" id="e4fb0Fyttn"></path><path d="M446.45 140.45C451.98 140.45 456.45 144.93 456.45 150.45C456.45 211 456.45 382.64 456.45 443.18C456.45 448.7 451.98 453.18 446.45 453.18C430.64 453.18 393.18 453.18 377.36 453.18C371.84 453.18 367.36 448.7 367.36 443.18C367.36 382.64 367.36 211 367.36 150.45C367.36 144.93 371.84 140.45 377.36 140.45C393.18 140.45 430.64 140.45 446.45 140.45Z" id="aw76nAvTD"></path></defs><g><g><g><use xlink:href="#e4fb0Fyttn" opacity="1" fill="#ffffff" fill-opacity="1"></use></g><g><use xlink:href="#aw76nAvTD" opacity="1" fill="#ffffff" fill-opacity="1"></use></g></g></g></svg>